<?xml version="1.0" encoding="iso-8859-1"?>
<!-- Generator: Adobe Illustrator 19.0.0, SVG Export Plug-In . SVG Version: 6.00 Build 0)  -->
<svg version="1.1" id="Capa_1" xmlns="http://www.w3.org/2000/svg" xmlns:xlink="http://www.w3.org/1999/xlink" x="0px" y="0px"
	 viewBox="0 0 512 512" style="enable-background:new 0 0 512 512;" xml:space="preserve">
<g>
	<g>
		<path d="M256,0C114.833,0,0,114.833,0,256s114.833,256,256,256s256-114.833,256-256S397.167,0,256,0z M338.208,263.542
			L220.875,380.875c-2.042,2.042-4.771,3.125-7.542,3.125c-1.375,0-2.771-0.271-4.083-0.813c-3.979-1.646-6.583-5.542-6.583-9.854
			v-32c0-2.833,1.125-5.542,3.125-7.542L283.583,256l-77.792-77.792c-2-2-3.125-4.708-3.125-7.542v-32
			c0-4.313,2.604-8.208,6.583-9.854c3.979-1.604,8.583-0.729,11.625,2.313l117.333,117.333
			C342.375,252.625,342.375,259.375,338.208,263.542z"/>
	</g>
</g>
<g>
</g>
<g>
</g>
<g>
</g>
<g>
</g>
<g>
</g>
<g>
</g>
<g>
</g>
<g>
</g>
<g>
</g>
<g>
</g>
<g>
</g>
<g>
</g>
<g>
</g>
<g>
</g>
<g>
</g>
</svg>
